<svg xmlns="http://www.w3.org/2000/svg" viewBox="0 0 1024 1024">
  <circle cx="512" cy="512" r="465" fill="black" />
  <path d="M512 75c-241.38 0-437 195.62-437 437s195.62 437 437 437 437-195.62 437-437S753.38 75 512 75zm0 830c-217.24 0-393-175.76-393-393S294.76 119 512 119s393 175.76 393 393-175.76 393-393 393z" fill="#e0e0e0"/>
  <path d="M670 400c0-22-2-40-26-58-23-17-77-30-132-30s-109 13-132 30c-24 18-26 36-26 58v10c0 15 1 30 25 40 16 7 35 12 58 16v64c0 18 2 33 22 47 22 15 52 24 85 24s63-9 85-24c20-14 22-29 22-47v-64c23-4 42-9 58-16 24-10 25-25 25-40v-10z" fill="#e0e0e0"/>
  <path d="M553 310c-41-3-83 3-112 17-29 13-29 24-29 24s0-11 29-24c29-14 71-20 112-17 42 3 84 14 113 31 24 15 29 28 29 41 0 15-5 29-26 40-20 11-47 19-82 23-35 5-77 5-112 0-35-4-62-12-82-23-21-11-26-25-26-40v88s0 11 21 22c20 10 48 18 82 22 35 5 77 5 112 0 34-4 62-12 82-22 21-11 21-22 21-22v-88c0-13 5-26 29-41 29-17 71-28 113-31z" fill="#e0e0e0"/>
  <path d="M512 275c-55 0-109 13-132 30-24 18-26 36-26 58v10c0 15 1 30 25 40 16 7 35 12 58 16v64c0 18 2 33 22 47 22 15 52 24 85 24s63-9 85-24c20-14 22-29 22-47v-64c23-4 42-9 58-16 24-10 25-25 25-40v-10c0-22-2-40-26-58-23-17-77-30-132-30z" fill="transparent"/>
</svg> 